HIERARCHY
ROOT joint_Root
{
	OFFSET 0.0 0.0 0.0
	CHANNELS 6 Xposition Yposition Zposition Zrotation Xrotation Yrotation 
	JOINT Hips
	{
		OFFSET -0.726466 93.3139 -2.00062
		CHANNELS 6 Xposition Yposition Zposition Zrotation Xrotation Yrotation 
		JOINT Spine
		{
			OFFSET 15.7357 0.0 0.0
			CHANNELS 6 Xposition Yposition Zposition Zrotation Xrotation Yrotation 
			JOINT Chest
			{
				OFFSET 8.98455 -0.406207 0.0
				CHANNELS 6 Xposition Yposition Zposition Zrotation Xrotation Yrotation 
				JOINT Neck
				{
					OFFSET 16.3773 0.0 0.0
					CHANNELS 6 Xposition Yposition Zposition Zrotation Xrotation Yrotation 
					JOINT Head
					{
						OFFSET 6.45672 0.0 0.0
						CHANNELS 6 Xposition Yposition Zposition Zrotation Xrotation Yrotation 
						End Site
						{
							OFFSET 0.0 0.0 0.0
						}
					}
				}
				JOINT Shoulder_L
				{
					OFFSET 12.9942 -0.242716 4.98039
					CHANNELS 6 Xposition Yposition Zposition Zrotation Xrotation Yrotation 
					JOINT UpperArm_L
					{
						OFFSET 5.34809 0.0 0.0
						CHANNELS 6 Xposition Yposition Zposition Zrotation Xrotation Yrotation 
						JOINT LowerArm_L
						{
							OFFSET 24.3286 1.87007e-05 0.0
							CHANNELS 6 Xposition Yposition Zposition Zrotation Xrotation Yrotation 
							JOINT Hand_L
							{
								OFFSET 22.2916 0.0 0.0
								CHANNELS 6 Xposition Yposition Zposition Zrotation Xrotation Yrotation 
								End Site
								{
									OFFSET 0.0 0.0 0.0
								}
							}
						}
					}
				}
				JOINT Shoulder_R
				{
					OFFSET 12.9945 -0.242716 -4.98039
					CHANNELS 6 Xposition Yposition Zposition Zrotation Xrotation Yrotation 
					JOINT UpperArm_R
					{
						OFFSET -5.34813 0.0 0.0
						CHANNELS 6 Xposition Yposition Zposition Zrotation Xrotation Yrotation 
						JOINT LowerArm_R
						{
							OFFSET -24.3289 0.000322201 0.0
							CHANNELS 6 Xposition Yposition Zposition Zrotation Xrotation Yrotation 
							JOINT Hand_R
							{
								OFFSET -22.2915 -0.000108084 0.0
								CHANNELS 6 Xposition Yposition Zposition Zrotation Xrotation Yrotation 
								End Site
								{
									OFFSET 0.0 0.0 0.0
								}
							}
						}
					}
				}
			}
		}
		JOINT UpperLeg_L
		{
			OFFSET -2.19248 -6.46944 0.0
			CHANNELS 6 Xposition Yposition Zposition Zrotation Xrotation Yrotation 
			JOINT LowerLeg_L
			{
				OFFSET 39.0811 0.0 -1.23785e-05
				CHANNELS 6 Xposition Yposition Zposition Zrotation Xrotation Yrotation 
				JOINT Foot_L
				{
					OFFSET 40.9854 0.0 -1.26872e-05
					CHANNELS 6 Xposition Yposition Zposition Zrotation Xrotation Yrotation 
					JOINT Toes_L
					{
						OFFSET 11.7543 0.0 0.0
						CHANNELS 6 Xposition Yposition Zposition Zrotation Xrotation Yrotation 
						End Site
						{
							OFFSET 0.0 0.0 0.0
						}
					}
				}
			}
		}
		JOINT UpperLeg_R
		{
			OFFSET -2.19251 6.46944 0.0
			CHANNELS 6 Xposition Yposition Zposition Zrotation Xrotation Yrotation 
			JOINT LowerLeg_R
			{
				OFFSET -39.0811 -0.00228153 -0.0401928
				CHANNELS 6 Xposition Yposition Zposition Zrotation Xrotation Yrotation 
				JOINT Foot_R
				{
					OFFSET -40.9854 0.0 0.0
					CHANNELS 6 Xposition Yposition Zposition Zrotation Xrotation Yrotation 
					JOINT Toes_R
					{
						OFFSET -11.7543 0.0 0.0
						CHANNELS 6 Xposition Yposition Zposition Zrotation Xrotation Yrotation 
						End Site
						{
							OFFSET 0.0 0.0 0.0
						}
					}
				}
			}
		}
	}
}
MOTION
Frames:	8
Frame Time:	0.0333333
0.000000 0.000000 0.000000 0.000000 0.000000 -0.000000 -0.544917 86.469100 -8.434530 89.342500 10.457500 -0.297828 15.735700 0.000005 -0.000001 60.356800 79.805000 -58.459600 8.984550 -0.406207 -0.000000 10.239400 -9.979400 4.695750 16.377300 -0.000001 -0.000001 10.882600 -3.067710 0.558989 6.456720 -0.000001 -0.000000 2.322410 3.648190 -0.548536 12.994200 -0.242716 4.980390 -88.267200 -5.416740 -72.230300 5.348090 -0.000007 -0.000001 -38.297400 23.577300 -33.266400 24.328600 0.000019 0.000005 -3.705890 -1.786090 -64.302900 22.291600 -0.000001 0.000005 6.693510 5.589490 -10.733100 12.994500 -0.242716 -4.980390 90.043800 -0.076659 -60.234100 -5.348130 -0.000001 -0.000004 -55.924400 30.371600 1.606970 -24.328900 0.000322 -0.000009 -3.355380 -3.942280 -40.447100 -22.291500 -0.000108 -0.000004 -1.927030 5.531190 -7.847440 -2.192480 -6.469440 -0.000000 -172.424000 -3.722260 10.006100 39.081100 -0.000007 -0.000012 -0.047176 0.088364 28.097000 40.985400 -0.000006 -0.000013 2.477030 3.217620 -75.492900 11.754300 -0.000000 0.000003 -3.637160 -3.678440 -25.644800 -2.192510 6.469440 -0.000001 -176.082000 21.968000 147.535000 -39.081100 -0.002282 -0.040193 -0.001180 0.029982 8.575010 -40.985400 0.000008 0.000006 -3.462610 1.808850 -59.094500 -11.754300 -0.000006 -0.000006 -0.024143 -0.189240 -24.313500
0.000000 0.000000 0.000000 0.000000 0.000000 -0.000000 -1.508900 85.079900 -2.600850 88.522300 12.098300 -0.847262 15.735700 0.000005 -0.000001 58.407100 79.871000 -55.887400 8.984550 -0.406207 -0.000000 9.849980 -10.504100 5.954480 16.377300 -0.000001 -0.000001 11.326300 -3.486870 0.604553 6.456720 -0.000001 -0.000000 2.008330 3.443220 -0.609548 12.994200 -0.242716 4.980390 -88.402500 -5.140080 -72.709100 5.348090 -0.000007 -0.000001 -38.662800 22.879900 -33.318600 24.328600 0.000019 0.000005 -3.443700 -1.658020 -64.321100 22.291600 -0.000001 0.000005 7.054120 5.588550 -10.680200 12.994500 -0.242716 -4.980390 90.009700 -0.016920 -60.050400 -5.348130 -0.000001 -0.000004 -55.952800 29.582100 3.291840 -24.328900 0.000322 -0.000009 -2.776370 -3.287260 -40.210000 -22.291500 -0.000108 -0.000004 -1.808310 5.530230 -7.805120 -2.192480 -6.469440 -0.000000 -169.332000 -2.765300 11.140500 39.081100 -0.000007 -0.000012 -0.053632 0.090152 30.748800 40.985400 -0.000006 -0.000013 1.554540 4.946460 -74.230700 11.754300 -0.000000 0.000003 -0.054545 -0.313627 -29.510200 -2.192510 6.469440 -0.000001 -174.796000 20.530100 141.521000 -39.081100 -0.002282 -0.040193 0.045542 -0.114941 20.169700 -40.985400 0.000008 0.000006 3.784720 -2.750730 -58.869700 -11.754300 -0.000006 -0.000006 -0.030852 -0.221340 -25.642900
0.000000 0.000000 0.000000 0.000000 0.000000 -0.000000 -2.769180 83.939500 3.945260 86.348300 12.984700 -1.112100 15.735700 0.000005 -0.000001 57.433300 80.238200 -53.899900 8.984550 -0.406207 -0.000000 9.133660 -10.412900 7.910510 16.377300 -0.000001 -0.000001 12.193200 -3.809500 0.477359 6.456720 -0.000001 -0.000000 1.901690 3.239520 -0.879005 12.994200 -0.242716 4.980390 -88.719300 -4.181200 -72.952700 5.348090 -0.000007 -0.000001 -39.276600 23.562100 -32.186200 24.328600 0.000019 0.000005 -3.164000 -1.562160 -63.749100 22.291600 -0.000001 0.000005 6.897720 5.586870 -10.586400 12.994500 -0.242716 -4.980390 89.825000 0.306648 -60.292400 -5.348130 -0.000001 -0.000004 -55.808500 28.515600 5.074290 -24.328900 0.000322 -0.000009 -2.136010 -2.550840 -39.949400 -22.291500 -0.000108 -0.000004 -1.809940 5.531550 -7.863450 -2.192480 -6.469440 -0.000000 -164.747000 -2.045420 12.028300 39.081100 -0.000007 -0.000012 -0.031741 0.047720 33.630300 40.985400 -0.000006 -0.000013 0.658454 6.496600 -69.314300 11.754300 -0.000000 0.000003 -0.147947 -0.550682 -39.854100 -2.192510 6.469440 -0.000001 -173.700000 18.082500 136.668000 -39.081100 -0.002282 -0.040193 0.120427 -0.189204 31.760000 -40.985400 0.000008 0.000006 3.558840 -5.072720 -48.255400 -11.754300 -0.000006 -0.000006 -0.039013 -0.256153 -27.092500
0.000000 0.000000 0.000000 0.000000 0.000000 -0.000000 -3.791230 83.108700 11.223800 84.504700 12.318500 1.977700 15.735700 0.000005 -0.000001 60.497600 79.602300 -56.177900 8.984550 -0.406207 -0.000000 10.853600 -10.053100 9.610460 16.377300 -0.000001 -0.000001 11.948600 -3.452980 0.024260 6.456720 -0.000001 -0.000000 1.996640 3.168830 -1.733910 12.994200 -0.242716 4.980390 -88.948500 -3.320070 -72.414700 5.348090 -0.000007 -0.000001 -42.521100 24.555500 -29.249300 24.328600 0.000019 0.000005 -1.360070 -0.699056 -62.800900 22.291600 -0.000001 0.000005 6.413710 5.586860 -10.585800 12.994500 -0.242716 -4.980390 89.791300 0.377788 -61.088800 -5.348130 -0.000001 -0.000004 -55.324100 27.810200 4.809180 -24.328900 0.000322 -0.000009 -1.753080 -2.186470 -38.719000 -22.291500 -0.000108 -0.000004 -1.525540 5.535530 -8.040600 -2.192480 -6.469440 -0.000000 -162.011000 -0.136449 14.885400 39.081100 -0.000007 -0.000012 0.056840 -0.071348 38.541700 40.985400 -0.000006 -0.000013 1.849940 5.666320 -59.085000 11.754300 -0.000000 0.000003 -0.276804 -0.759637 -49.820100 -2.192510 6.469440 -0.000001 -173.679000 14.973100 138.075000 -39.081100 -0.002282 -0.040193 0.042911 -0.042281 43.154300 -40.985400 0.000008 0.000006 2.152110 -6.557390 -51.055200 -11.754300 -0.000006 -0.000006 -0.024916 -0.193137 -24.474500
0.000000 0.000000 0.000000 0.000000 0.000000 -0.000000 -4.754520 82.977700 17.892300 83.750100 11.437900 4.808170 15.735700 0.000005 -0.000001 63.305200 78.890200 -58.806600 8.984550 -0.406207 -0.000000 12.619100 -9.699790 10.089300 16.377300 -0.000001 -0.000001 11.973500 -3.240050 0.370849 6.456720 -0.000001 -0.000000 2.060280 3.001620 -1.966460 12.994200 -0.242716 4.980390 -88.806900 -3.748990 -72.331600 5.348090 -0.000007 -0.000001 -48.052500 25.349200 -25.340200 24.328600 0.000019 0.000005 -0.199706 -0.112700 -60.562600 22.291600 -0.000001 0.000005 6.532510 5.587160 -10.603000 12.994500 -0.242716 -4.980390 89.641000 0.667836 -61.736200 -5.348130 -0.000001 -0.000004 -54.973900 28.043400 2.010690 -24.328900 0.000322 -0.000009 -0.683487 -0.940396 -35.961700 -22.291500 -0.000108 -0.000004 -1.267080 5.538790 -8.187330 -2.192480 -6.469440 -0.000000 -161.414000 1.718850 13.710100 39.081100 -0.000007 -0.000012 0.159110 -0.146901 47.284200 40.985400 -0.000006 -0.000013 1.496770 1.984100 -45.224200 11.754300 -0.000000 0.000003 -0.122139 -0.496475 -37.419800 -2.192510 6.469440 -0.000001 -172.130000 15.869000 141.464000 -39.081100 -0.002282 -0.040193 0.167350 -0.134075 50.751100 -40.985400 0.000008 0.000006 6.651450 -5.998620 -59.323500 -11.754300 -0.000006 -0.000006 -0.009597 -0.100602 -20.671500
0.000000 0.000000 0.000000 0.000000 0.000000 -0.000000 -5.654720 83.499900 23.493200 83.866700 11.575600 5.640480 15.735700 0.000005 -0.000001 64.602700 78.864300 -60.277500 8.984550 -0.406207 -0.000000 12.844800 -9.269560 9.711340 16.377300 -0.000001 -0.000001 12.015700 -3.722300 0.677352 6.456720 -0.000001 -0.000000 2.641240 2.213940 -0.999612 12.994200 -0.242716 4.980390 -88.604400 -4.433730 -72.507400 5.348090 -0.000007 -0.000001 -52.328200 27.116000 -23.122700 24.328600 0.000019 0.000005 0.101030 0.066948 -56.505500 22.291600 -0.000001 0.000005 5.615930 5.584480 -10.454300 12.994500 -0.242716 -4.980390 89.247800 1.398590 -61.724800 -5.348130 -0.000001 -0.000004 -54.734200 28.388300 -0.917642 -24.328900 0.000322 -0.000009 0.105285 0.156421 -34.224100 -22.291500 -0.000108 -0.000004 -0.661821 5.541610 -8.316130 -2.192480 -6.469440 -0.000000 -162.715000 3.447730 8.604380 39.081100 -0.000007 -0.000012 0.167990 -0.113287 56.004600 40.985400 -0.000006 -0.000013 6.217070 -2.391380 -34.907800 11.754300 -0.000000 0.000003 -0.005430 -0.065572 -19.245100 -2.192510 6.469440 -0.000001 -171.864000 16.681300 145.318000 -39.081100 -0.002282 -0.040193 0.236382 -0.173763 53.303300 -40.985400 0.000008 0.000006 7.564060 -6.555320 -65.009600 -11.754300 -0.000006 -0.000006 -0.006108 -0.071813 -19.495900
0.000000 0.000000 0.000000 0.000000 0.000000 -0.000000 -6.142800 84.461200 28.274500 84.370900 10.450000 5.079690 15.735700 0.000005 -0.000001 67.307700 79.435000 -63.283200 8.984550 -0.406207 -0.000000 12.107400 -7.928940 8.900030 16.377300 -0.000001 -0.000001 11.901600 -3.824390 0.831573 6.456720 -0.000001 -0.000000 3.079090 1.339120 -0.994854 12.994200 -0.242716 4.980390 -88.586700 -4.421160 -72.252700 5.348090 -0.000007 -0.000001 -54.869900 29.485500 -21.431900 24.328600 0.000019 0.000005 1.653420 1.268290 -52.525900 22.291600 -0.000001 0.000005 3.623740 5.575740 -9.984990 12.994500 -0.242716 -4.980390 89.105600 1.689200 -62.094700 -5.348130 -0.000001 -0.000004 -55.107400 28.443000 -3.502770 -24.328900 0.000322 -0.000009 -0.151559 -0.222275 -34.092400 -22.291500 -0.000108 -0.000004 -0.122561 5.546580 -8.545670 -2.192480 -6.469440 -0.000000 -164.242000 2.308350 1.701270 39.081100 -0.000007 -0.000012 0.136055 -0.062232 65.418600 40.985400 -0.000006 -0.000013 8.266810 -5.629900 -41.388100 11.754300 -0.000000 0.000003 -0.008424 -0.091472 -20.302100 -2.192510 6.469440 -0.000001 -172.035000 15.939500 148.887000 -39.081100 -0.002282 -0.040193 0.217036 -0.161412 52.948600 -40.985400 0.000008 0.000006 7.592850 -6.661940 -68.198200 -11.754300 -0.000006 -0.000006 -0.004800 -0.059515 -18.994500
0.000000 0.000000 0.000000 0.000000 0.000000 -0.000000 -6.214910 85.855800 32.714500 85.219500 8.676180 4.910240 15.735700 0.000005 -0.000001 71.047300 79.816800 -67.513500 8.984550 -0.406207 -0.000000 11.760800 -6.437050 7.735180 16.377300 -0.000001 -0.000001 11.859000 -3.457710 0.730171 6.456720 -0.000001 -0.000000 3.133900 0.911747 -1.296690 12.994200 -0.242716 4.980390 -88.653400 -4.051810 -71.598000 5.348090 -0.000007 -0.000001 -56.694800 31.742000 -18.877300 24.328600 0.000019 0.000005 4.204590 3.538980 -49.982800 22.291600 -0.000001 0.000005 2.612830 5.574100 -9.900070 12.994500 -0.242716 -4.980390 89.145000 1.668150 -62.858600 -5.348130 -0.000001 -0.000004 -55.404100 28.882800 -6.591970 -24.328900 0.000322 -0.000009 -0.755301 -1.083860 -34.834500 -22.291500 -0.000108 -0.000004 0.044090 5.546620 -8.547690 -2.192480 -6.469440 -0.000000 -165.863000 -1.387870 -4.815260 39.081100 -0.000007 -0.000012 0.155724 -0.053370 71.080400 40.985400 -0.000006 -0.000013 8.809890 -5.946780 -45.046700 11.754300 -0.000000 0.000003 -0.008195 -0.089624 -20.226600 -2.192510 6.469440 -0.000001 -173.097000 15.148800 153.860000 -39.081100 -0.002282 -0.040193 0.171815 -0.139588 50.372700 -40.985400 0.000008 0.000006 7.442080 -5.737640 -69.821200 -11.754300 -0.000006 -0.000006 -0.003267 -0.043584 -18.345700
